<?xml version="1.0" encoding="UTF-8"?><svg id="Layer_1" xmlns="http://www.w3.org/2000/svg" viewBox="0 0 257.43 220.7"><defs><style>.cls-1{fill:#1462a3;stroke:#467bb4;stroke-width:.5px;}.cls-1,.cls-2{stroke-miterlimit:10;}.cls-2{fill:none;stroke:#fff;stroke-dasharray:0 12;}</style></defs><path class="cls-2" d="M-1637.08-28.81s146.85-186.27,330.73-186.27,194.94,41.04,297.54,93.14c102.61,52.09,153.12-59.99,89.98-82.09-63.14-22.1-106.89,71.11-106.22,108.66.67,37.54,11.5,265.47,335.11,328.61C-366.32,296.38-153.21,88.83-97.96,6.33c0,0,91.47-140.28,140.4-212.9"/><path class="cls-1" d="M257.43,44.35v132c0,24.49-19.86,44.35-44.35,44.35H44.35c-24.5,0-44.35-19.86-44.35-44.35V44.35c0-6.79,1.52-13.23,4.25-18.98,2.73-5.75,9.78-7.12,14.35-3.1,5.21,4.58,12.05,7.35,19.53,7.35,13.58,0,25.02-9.14,28.52-21.61,1.34-4.77,5.79-8.01,10.74-8.01h135.69c24.49,0,44.35,19.86,44.35,44.35Z"/></svg>